<svg width="10" height="31" viewBox="0 0 10 31" fill="none" xmlns="http://www.w3.org/2000/svg">
<path opacity="0.9" d="M2.55 6.02532C1.15 4.60759 1.15 2.36287 2.55 1.06329C3.95 -0.35443 6.16667 -0.35443 7.45 1.06329C8.85 2.48101 8.85 4.72574 7.45 6.02532C6.16667 7.32489 3.95 7.32489 2.55 6.02532Z" fill="white"/>
<path opacity="0.5" d="M5 20C6.38071 20 7.5 18.8807 7.5 17.5C7.5 16.1193 6.38071 15 5 15C3.61929 15 2.5 16.1193 2.5 17.5C2.5 18.8807 3.61929 20 5 20Z" fill="white"/>
<path opacity="0.3" d="M3.95 30.55C3.35 29.95 3.35 29.05 3.95 28.45C4.55 27.85 5.45 27.85 6.05 28.45C6.65 29.05 6.65 29.95 6.05 30.55C5.45 31.15 4.55 31.15 3.95 30.55Z" fill="white"/>
</svg>
