<svg width="22" height="22" viewBox="0 0 22 22" fill="none" xmlns="http://www.w3.org/2000/svg">
<path d="M5.09 14C4.70066 13.12 4.49969 12.1683 4.5 11.206C4.5 7.501 7.41 4.5 11 4.5C14.59 4.5 17.5 7.502 17.5 11.206C17.5003 12.1683 17.2993 13.12 16.91 14M11 1V2M21 11H20M2 11H1M18.07 3.929L17.363 4.636M4.637 4.637L3.93 3.93M13.517 18.307C14.527 17.98 14.933 17.055 15.047 16.125C15.081 15.847 14.852 15.616 14.572 15.616H7.477C7.40862 15.6149 7.3408 15.6284 7.278 15.6554C7.21521 15.6825 7.15888 15.7226 7.11275 15.7731C7.06662 15.8236 7.03173 15.8833 7.0104 15.9483C6.98906 16.0132 6.98177 16.082 6.989 16.15C7.101 17.078 7.383 17.756 8.453 18.306M13.517 18.307L8.453 18.306M13.517 18.307C13.396 20.252 12.834 21.022 11.007 21C9.053 21.036 8.603 20.083 8.453 18.306" stroke="white" stroke-width="1.5" stroke-linecap="round" stroke-linejoin="round"/>
</svg>
