<svg width="10" height="31" viewBox="0 0 10 31" fill="none" xmlns="http://www.w3.org/2000/svg">
<path opacity="0.9" d="M2.55 24.9747C1.15 26.3924 1.15 28.6371 2.55 29.9367C3.95 31.3544 6.16667 31.3544 7.45 29.9367C8.85 28.519 8.85 26.2743 7.45 24.9747C6.16667 23.6751 3.95 23.6751 2.55 24.9747Z" fill="#BC2C38"/>
<path opacity="0.5" d="M5 11C6.38071 11 7.5 12.1193 7.5 13.5C7.5 14.8807 6.38071 16 5 16C3.61929 16 2.5 14.8807 2.5 13.5C2.5 12.1193 3.61929 11 5 11Z" fill="#BC2C38"/>
<path opacity="0.4" d="M3.95 0.45C3.35 1.05 3.35 1.95 3.95 2.55C4.55 3.15 5.45 3.15 6.05 2.55C6.65 1.95 6.65 1.05 6.05 0.45C5.45 -0.15 4.55 -0.15 3.95 0.45Z" fill="#BC2C38"/>
</svg>
