<svg width="54" height="6" viewBox="0 0 54 6" fill="none" xmlns="http://www.w3.org/2000/svg">
<path d="M53.5117 3L50.625 0.113249L47.7382 3L50.625 5.88675L53.5117 3ZM0.625 3.5H1.58654V2.5H0.625V3.5ZM3.50962 3.5H5.43269V2.5H3.50962V3.5ZM7.35577 3.5H9.27884V2.5H7.35577V3.5ZM11.2019 3.5H13.125V2.5H11.2019V3.5ZM15.0481 3.5H16.9712V2.5H15.0481V3.5ZM18.8942 3.5H20.8173V2.5H18.8942V3.5ZM22.7404 3.5H24.6635V2.5H22.7404V3.5ZM26.5865 3.5H28.5096V2.5H26.5865V3.5ZM30.4327 3.5H32.3558V2.5H30.4327V3.5ZM34.2788 3.5H36.2019V2.5H34.2788V3.5ZM38.125 3.5H40.0481V2.5H38.125V3.5ZM41.9711 3.5H43.8942V2.5H41.9711V3.5ZM45.8173 3.5H47.7404V2.5H45.8173V3.5ZM49.6635 3.5H50.625V2.5H49.6635V3.5Z" fill="#BC2C38"/>
</svg>
